<?xml version="1.0" standalone="no"?>
<svg viewBox="0 0 200 200" xmlns="http://www.w3.org/2000/svg">
  <path fill="#0D6EFD" d="M37,-67.9C47.4,-58.1,54.9,-47.1,64.4,-35.5C74,-24,85.6,-12,84.3,-0.7C83.1,10.5,68.9,21.1,57.9,30C46.9,39,38.9,46.3,29.8,53.8C20.6,61.4,10.3,69.1,-1,70.8C-12.2,72.4,-24.5,68,-38.2,63.1C-52,58.2,-67.2,52.9,-77.4,42.3C-87.5,31.8,-92.5,15.9,-91,0.9C-89.4,-14.1,-81.3,-28.2,-68.2,-33.6C-55.1,-39.1,-37,-35.9,-24.8,-44.7C-12.6,-53.5,-6.3,-74.1,3.5,-80.2C13.3,-86.3,26.6,-77.7,37,-67.9Z" transform="translate(100 100)" />
</svg>
