<?xml version="1.0" standalone="no"?><svg xmlns="http://www.w3.org/2000/svg" viewBox="0 0 1440 320"><path fill="#0DCAF0" fill-opacity="1" d="M0,160L18.5,176C36.9,192,74,224,111,240C147.7,256,185,256,222,234.7C258.5,213,295,171,332,138.7C369.2,107,406,85,443,96C480,107,517,149,554,176C590.8,203,628,213,665,197.3C701.5,181,738,139,775,149.3C812.3,160,849,224,886,234.7C923.1,245,960,203,997,202.7C1033.8,203,1071,245,1108,229.3C1144.6,213,1182,139,1218,117.3C1255.4,96,1292,128,1329,144C1366.2,160,1403,160,1422,160L1440,160L1440,320L1421.5,320C1403.1,320,1366,320,1329,320C1292.3,320,1255,320,1218,320C1181.5,320,1145,320,1108,320C1070.8,320,1034,320,997,320C960,320,923,320,886,320C849.2,320,812,320,775,320C738.5,320,702,320,665,320C627.7,320,591,320,554,320C516.9,320,480,320,443,320C406.2,320,369,320,332,320C295.4,320,258,320,222,320C184.6,320,148,320,111,320C73.8,320,37,320,18,320L0,320Z"></path></svg>