<?xml version="1.0" standalone="no"?><svg xmlns="http://www.w3.org/2000/svg" viewBox="0 0 1440 320"><path fill="#0d6efd" fill-opacity="1" d="M0,128L34.3,122.7C68.6,117,137,107,206,117.3C274.3,128,343,160,411,170.7C480,181,549,171,617,154.7C685.7,139,754,117,823,106.7C891.4,96,960,96,1029,106.7C1097.1,117,1166,139,1234,138.7C1302.9,139,1371,117,1406,106.7L1440,96L1440,320L1405.7,320C1371.4,320,1303,320,1234,320C1165.7,320,1097,320,1029,320C960,320,891,320,823,320C754.3,320,686,320,617,320C548.6,320,480,320,411,320C342.9,320,274,320,206,320C137.1,320,69,320,34,320L0,320Z"></path></svg>